<?xml version="1.0" standalone="no"?>
<!DOCTYPE svg PUBLIC "-//W3C//DTD SVG 20010904//EN"
 "http://www.w3.org/TR/2001/REC-SVG-20010904/DTD/svg10.dtd">
<svg version="1.0" xmlns="http://www.w3.org/2000/svg"
 width="200.000000pt" height="40.000000pt" viewBox="0 0 200.000000 40.000000"
 preserveAspectRatio="xMidYMid meet">

<g transform="translate(0.000000,40.000000) scale(0.100000,-0.100000)"
fill="#000000" stroke="none">
<path d="M287 322 c-21 -22 -27 -38 -27 -74 0 -38 7 -55 43 -104 24 -33 60
-73 79 -91 20 -17 34 -34 31 -37 -16 -16 64 -3 127 20 75 28 130 70 130 100 0
15 -4 14 -27 -8 -35 -32 -90 -67 -80 -50 12 18 -4 14 -33 -8 -34 -27 -42 -25
-121 16 -93 49 -135 121 -108 186 13 32 27 35 72 11 28 -14 30 -14 19 0 -7 8
-29 23 -48 32 -19 9 -32 20 -29 26 11 17 -1 9 -28 -19z m-10 -104 c-2 -13 -4
-3 -4 22 0 25 2 35 4 23 2 -13 2 -33 0 -45z m182 -182 c-6 -7 -79 37 -79 48 0
2 20 -6 44 -18 25 -12 40 -25 35 -30z"/>
<path d="M548 319 c-33 -30 -33 -30 -3 -10 48 32 77 35 108 11 15 -12 27 -30
27 -40 0 -16 -4 -17 -28 -8 -32 13 -68 6 -97 -17 -19 -15 -18 -16 21 -10 34 5
46 2 69 -17 l27 -24 -52 -57 c-29 -31 -48 -57 -42 -57 5 0 28 20 50 44 42 45
52 48 53 12 0 -19 1 -19 10 3 5 13 7 54 5 90 -4 55 -9 70 -31 89 -37 31 -78
28 -117 -9z"/>
<path d="M1023 340 c-26 -11 -40 -35 -44 -75 -7 -93 15 -125 86 -125 33 0 45
4 45 15 0 10 -10 15 -32 15 -40 0 -53 8 -60 38 -6 21 -3 22 43 22 37 0 49 4
49 15 0 11 -12 15 -46 15 -41 0 -45 2 -42 23 2 18 10 23 46 25 34 3 42 7 42
23 0 15 -7 19 -32 18 -18 0 -43 -4 -55 -9z"/>
<path d="M1150 245 l0 -105 50 0 c73 0 100 29 100 105 0 76 -27 105 -100 105
l-50 0 0 -105z m113 25 c6 -22 5 -45 -2 -62 -9 -23 -17 -28 -46 -28 l-35 0 0
66 0 65 38 -3 c33 -3 38 -7 45 -38z"/>
<path d="M1330 245 c0 -98 1 -105 20 -105 19 0 20 7 20 105 0 98 -1 105 -20
105 -19 0 -20 -7 -20 -105z"/>
<path d="M1429 331 c-21 -17 -24 -28 -24 -85 0 -80 14 -97 84 -104 47 -4 51
-3 51 17 0 18 -6 21 -38 21 -49 0 -62 14 -62 66 0 52 20 74 66 74 24 0 34 5
34 15 0 23 -82 20 -111 -4z"/>
<path d="M1586 263 c-16 -49 -31 -94 -33 -100 -3 -7 2 -13 11 -13 9 0 21 11
26 25 8 20 16 25 45 25 29 0 36 -4 41 -25 4 -16 13 -25 25 -25 25 0 25 -1 -13
107 -27 76 -37 93 -53 93 -17 0 -26 -15 -49 -87z m73 -25 c1 -5 -11 -8 -25 -8
-20 0 -25 4 -20 16 3 9 9 28 13 42 l6 27 13 -35 c7 -19 13 -38 13 -42z"/>
<path d="M1740 267 c0 -69 3 -87 18 -100 24 -22 92 -23 92 -2 0 10 -10 15 -30
15 -39 0 -50 23 -50 104 0 52 -3 66 -15 66 -12 0 -15 -16 -15 -83z"/>
<path d="M760 240 c0 -82 3 -100 15 -100 12 0 15 15 16 68 l1 67 21 -68 c17
-58 23 -68 41 -65 16 2 24 16 36 63 l15 60 3 -62 c3 -55 6 -63 22 -63 19 0 20
7 20 100 l0 100 -29 0 c-27 0 -30 -3 -46 -70 -18 -72 -28 -80 -39 -33 -24 99
-26 103 -51 103 -25 0 -25 0 -25 -100z"/>
</g>
</svg>
